HIERARCHY
ROOT Hips
{
	OFFSET 0.00000 0.00000 0.00000
	CHANNELS 6 Xposition Yposition Zposition Zrotation Yrotation Xrotation 
	JOINT LHipJoint
	{
		OFFSET 0 0 0
		CHANNELS 3 Zrotation Yrotation Xrotation
		JOINT LeftUpLeg
		{
			OFFSET 1.73240 -1.89999 0.57994
			CHANNELS 3 Zrotation Yrotation Xrotation
			JOINT LeftLeg
			{
				OFFSET 2.43106 -6.67930 0.00000
				CHANNELS 3 Zrotation Yrotation Xrotation
				JOINT LeftFoot
				{
					OFFSET 2.78854 -7.66147 0.00000
					CHANNELS 3 Zrotation Yrotation Xrotation
					JOINT LeftToeBase
					{
						OFFSET 0.17314 -0.47571 2.01064
						CHANNELS 3 Zrotation Yrotation Xrotation
						End Site
						{
							OFFSET 0.00000 -0.00000 1.04147
						}
					}
				}
			}
		}
	}
	JOINT RHipJoint
	{
		OFFSET 0 0 0
		CHANNELS 3 Zrotation Yrotation Xrotation
		JOINT RightUpLeg
		{
			OFFSET -1.57078 -1.89998 0.57994
			CHANNELS 3 Zrotation Yrotation Xrotation
			JOINT RightLeg
			{
				OFFSET -2.50166 -6.87326 0.00000
				CHANNELS 3 Zrotation Yrotation Xrotation
				JOINT RightFoot
				{
					OFFSET -2.77304 -7.61886 0.00000
					CHANNELS 3 Zrotation Yrotation Xrotation
					JOINT RightToeBase
					{
						OFFSET -0.23513 -0.64602 2.11039
						CHANNELS 3 Zrotation Yrotation Xrotation
						End Site
						{
							OFFSET -0.00000 -0.00000 1.10597
						}
					}
				}
			}
		}
	}
	JOINT LowerBack
	{
		OFFSET 0 0 0
		CHANNELS 3 Zrotation Yrotation Xrotation
		JOINT Spine
		{
			OFFSET -0.00908 2.00015 -0.35323
			CHANNELS 3 Zrotation Yrotation Xrotation
			JOINT Spine1
			{
				OFFSET 0.05647 2.02258 0.04270
				CHANNELS 3 Zrotation Yrotation Xrotation
				JOINT Neck
				{
					OFFSET 0 0 0
					CHANNELS 3 Zrotation Yrotation Xrotation
					JOINT Neck1
					{
						OFFSET -0.02074 1.73711 0.13117
						CHANNELS 3 Zrotation Yrotation Xrotation
						JOINT Head
						{
							OFFSET -0.02359 1.73615 -0.24320
							CHANNELS 3 Zrotation Yrotation Xrotation
							End Site
							{
								OFFSET -0.00579 1.75982 -0.09688
							}
						}
					}
				}
				JOINT LeftShoulder
				{
					OFFSET 0 0 0
					CHANNELS 3 Zrotation Yrotation Xrotation
					JOINT LeftArm
					{
						OFFSET 3.20537 1.11432 -0.27680
						CHANNELS 3 Zrotation Yrotation Xrotation
						JOINT LeftForeArm
						{
							OFFSET 5.05923 -0.00000 -0.00000
							CHANNELS 3 Zrotation Yrotation Xrotation
							JOINT LeftHand
							{
								OFFSET 3.51996 -0.00000 0.00000
								CHANNELS 3 Zrotation Yrotation Xrotation
								JOINT LeftFingerBase
								{
									OFFSET 0 0 0
									CHANNELS 3 Zrotation Yrotation Xrotation
									JOINT LeftHandIndex1
									{
										OFFSET 0.65238 -0.00000 0.00000
										CHANNELS 3 Zrotation Yrotation Xrotation
										End Site
										{
											OFFSET 0.52596 -0.00000 0.00000
										}
									}
								}
								JOINT LThumb
								{
									OFFSET 0 0 0
									CHANNELS 3 Zrotation Yrotation Xrotation
									End Site
									{
										OFFSET 0.53399 -0.00000 0.53399
									}
								}
							}
						}
					}
				}
				JOINT RightShoulder
				{
					OFFSET 0 0 0
					CHANNELS 3 Zrotation Yrotation Xrotation
					JOINT RightArm
					{
						OFFSET -2.96983 1.42602 -0.37449
						CHANNELS 3 Zrotation Yrotation Xrotation
						JOINT RightForeArm
						{
							OFFSET -5.40867 -0.00000 0.00000
							CHANNELS 3 Zrotation Yrotation Xrotation
							JOINT RightHand
							{
								OFFSET -3.12964 -0.00000 0.00000
								CHANNELS 3 Zrotation Yrotation Xrotation
								JOINT RightFingerBase
								{
									OFFSET 0 0 0
									CHANNELS 3 Zrotation Yrotation Xrotation
									JOINT RightHandIndex1
									{
										OFFSET -0.83271 -0.00000 0.00000
										CHANNELS 3 Zrotation Yrotation Xrotation
										End Site
										{
											OFFSET -0.67135 -0.00000 0.00000
										}
									}
								}
								JOINT RThumb
								{
									OFFSET 0 0 0
									CHANNELS 3 Zrotation Yrotation Xrotation
									End Site
									{
										OFFSET -0.68160 -0.00000 0.68160
									}
								}
							}
						}
					}
				}
			}
		}
	}
}
MOTION
Frames: 16
Frame Time: .0083333
-2.0765 18.1232 39.692 0 0 0 0 0 0 -21 0 0 0 0 0 0 0 0 0 0 0 0 0 0 21 0 0 0 0 0 0 0 0 0 0 0 0 0 0 0 0 0 0 0 0 0 0 -16 0 0 21 0 0 11 0 0 0 -8 0 0 0 0 0 0 0 0 0 0 0 0 0 0 0 0 0 0 0 0 8 0 0 0 0 0 0 0 0 0 0 0 0 0 0 0 0 0
-2.0765 18.1232 39.6920 178.6570 2.6458 -178.8680 0.0000 0.0000 0.0000 -24.4919 -9.7195 -16.3677 2.5643 9.9538 28.8274 0.2733 0.1457 -9.9280 0.1585 -2.5649 -7.0697 0.0000 0.0000 0.0000 16.9691 3.9919 -9.7872 -11.4306 -18.1394 64.1723 0.3649 -14.7287 5.4998 -0.7762 -5.6251 15.7003 -2.5903 -1.4431 21.4786 4.7379 -1.3025 3.1100 7.0412 -0.1620 -8.4169 -1.7049 -0.8755 -9.5384 -4.7969 0.7349 18.3587 -1.1722 0.0922 7.2192 0.0000 0.0000 0.0000 -88.8541 21.6126 14.1966 20.2929 -30.9936 -5.6814 -0.0000 0.0000 -6.8675 10.0017 50.5731 7.7574 -7.1250 0.0000 -0.0000 -59.4055 74.0750 -44.3469 0.0000 0.0000 0.0000 82.7586 -15.4546 -37.1588 -67.8541 58.0632 -40.9458 0.0000 -0.0000 -36.2318 -9.3752 -1.3539 0.2235 7.1250 -0.0000 -0.0000 13.6462 -31.1693 4.7326
-2.0830 18.1182 39.5743 178.3750 1.9149 -178.9890 0.0000 0.0000 0.0000 -24.9715 -9.9092 -15.6199 2.5282 9.8889 28.6177 0.2746 -0.3939 -9.7659 0.1086 -2.1245 -5.8499 0.0000 0.0000 0.0000 16.7310 3.6212 -11.3300 -12.0318 -18.4041 66.0896 0.4127 -14.4960 4.3949 -0.6266 -5.0655 14.0954 -2.8671 -1.6098 21.7569 4.6408 -1.5782 3.2180 7.1793 -0.2820 -8.3999 -1.5184 -0.8453 -10.2658 -4.8720 0.7724 18.5779 -1.2296 0.0929 7.4213 0.0000 -0.0000 0.0000 -88.4093 21.0677 14.5795 20.0971 -30.7592 -5.5809 -0.0000 0.0000 -7.1361 9.8247 51.4518 7.7130 -7.1250 0.0000 -0.0000 -62.3970 74.3714 -47.2694 0.0000 -0.0000 0.0000 82.4699 -15.2151 -37.3827 -69.6934 58.3831 -42.5094 0.0000 -0.0000 -34.9126 -9.4533 -0.9646 0.1606 7.1250 -0.0000 -0.0000 13.5286 -30.7877 4.8172
-2.1245 18.1221 39.3882 178.1970 2.6091 -179.4960 0.0000 0.0000 0.0000 -25.5767 -9.4184 -14.3085 2.4922 9.8236 28.4075 0.2987 -0.2878 -10.2251 0.0464 -1.3907 -3.8244 0.0000 0.0000 0.0000 16.3391 4.2061 -11.9639 -12.5287 -18.6053 67.6550 0.3996 -13.7724 3.6332 -0.4705 -4.3993 12.2027 -3.0385 -1.5068 21.6846 4.5536 -1.4833 3.3948 7.1432 -0.2405 -8.1755 -1.5505 -0.7182 -10.1297 -5.1086 1.0200 18.6123 -1.2772 0.1976 7.4152 -0.0000 -0.0000 0.0000 -88.4581 21.1372 14.4862 20.0569 -30.7109 -5.5604 -0.0000 0.0000 -7.4272 10.2315 51.9326 8.0877 -7.1250 0.0000 -0.0000 -63.7992 74.7050 -48.8722 -0.0000 -0.0000 0.0000 81.7076 -15.2321 -37.0683 -71.5168 58.6690 -44.0646 0.0000 -0.0000 -33.6856 -9.8588 -0.8107 0.1409 7.1250 -0.0000 -0.0000 13.1915 -30.6451 4.7375
-2.1434 18.1161 39.2552 178.0330 2.4224 -179.5120 0.0000 0.0000 0.0000 -25.9500 -9.2924 -13.7237 2.4671 9.7779 28.2605 0.3287 -0.7028 -10.6051 0.0457 -1.3801 -3.7954 0.0000 0.0000 0.0000 16.1211 4.2761 -13.4743 -13.0484 -18.7996 69.2758 0.4378 -13.5751 2.4985 -0.3806 -3.9618 10.9692 -3.3560 -1.5907 21.9518 4.6221 -1.6895 3.1204 7.4924 -0.3196 -8.5790 -1.7065 -0.6947 -9.5344 -5.3537 1.1564 18.6078 -1.3148 0.2585 7.3126 -0.0000 0.0000 0.0000 -88.6132 21.3009 14.2032 19.9121 -30.5363 -5.4866 -0.0000 0.0000 -7.1751 10.4316 51.7978 8.2321 -7.1250 0.0000 -0.0000 -63.2210 74.7313 -48.3863 -0.0000 0.0000 0.0000 80.7960 -15.5484 -36.6997 -73.6467 58.9650 -45.8869 0.0000 -0.0000 -33.2461 -9.9206 -0.7278 0.1273 7.1250 -0.0000 -0.0000 13.1319 -30.5645 4.7411
-2.1679 18.1136 39.1080 177.9180 2.4266 -179.6550 0.0000 0.0000 0.0000 -26.3060 -9.0482 -12.9628 2.4460 9.7391 28.1359 0.3974 -0.9230 -11.6210 0.0988 -2.0270 -5.5803 0.0000 0.0000 0.0000 15.9616 4.4281 -14.7260 -13.4892 -18.9517 70.6384 0.4956 -13.6081 1.0769 -0.3574 -3.8410 10.6296 -3.3738 -1.6849 21.6829 4.5226 -1.8149 3.3059 7.4010 -0.3949 -8.2129 -1.7842 -0.7086 -9.3444 -5.4193 1.1450 18.4334 -1.3225 0.2486 7.2222 0.0000 0.0000 0.0000 -88.4138 20.7248 14.0451 19.6527 -30.2216 -5.3554 -0.0000 0.0000 -6.7784 9.7603 51.6905 7.6871 -7.1250 0.0000 -0.0000 -63.2373 74.4383 -48.0840 0.0000 0.0000 0.0000 80.3207 -15.1790 -36.5778 -75.9275 59.2383 -47.8440 0.0000 -0.0000 -33.2402 -9.9223 -0.6585 0.1152 7.1250 -0.0000 -0.0000 13.1211 -30.4960 4.7591
-2.1732 18.1039 39.0004 177.7530 1.6463 -179.6940 0.0000 0.0000 0.0000 -26.5980 -9.0446 -12.4420 2.4322 9.7136 28.0541 0.4124 -1.2332 -11.7640 0.1669 -2.6321 -7.2562 0.0000 0.0000 0.0000 15.8909 4.1113 -16.3160 -13.9073 -19.0857 71.9212 0.5572 -13.7992 -0.4197 -0.3692 -3.9029 10.8035 -3.5629 -1.9299 21.9880 4.5078 -2.1906 3.1739 7.6235 -0.5593 -8.4570 -1.6552 -0.6564 -9.0440 -5.6729 1.2471 18.3547 -1.4152 0.2986 7.1471 -0.0000 0.0000 0.0000 -88.1938 20.4484 14.1479 19.6246 -30.1874 -5.3413 -0.0000 0.0000 -6.6006 11.6932 50.7839 9.1099 -7.1250 0.0000 -0.0000 -58.9817 74.8044 -44.7459 -0.0000 0.0000 0.0000 79.9084 -14.9388 -36.5876 -78.3786 59.4835 -49.9530 0.0000 -0.0000 -33.7167 -9.9065 -0.5574 0.0974 7.1250 -0.0000 -0.0000 13.1195 -30.3958 4.7908
-2.1943 18.0971 38.8678 177.5860 1.5171 -179.7370 0.0000 0.0000 0.0000 -26.9525 -8.7996 -11.9130 2.4235 9.6976 28.0028 0.4212 -0.9082 -11.9757 0.1817 -2.7453 -7.5706 0.0000 0.0000 0.0000 15.6834 4.2782 -17.6901 -14.2417 -19.1857 72.9414 0.5870 -13.7274 -2.0161 -0.4817 -4.4509 12.3487 -3.7021 -1.9793 22.0036 4.4694 -2.2957 3.1697 7.6922 -0.6077 -8.4487 -1.4234 -0.5033 -9.3255 -5.9307 1.5201 18.6632 -1.5156 0.4184 7.3070 -0.0000 0.0000 0.0000 -88.0659 20.0708 14.1143 19.6691 -30.2416 -5.3637 -0.0000 0.0000 -6.3936 12.2519 50.9709 9.5752 -7.1250 0.0000 -0.0000 -59.2646 75.0972 -45.2958 -0.0000 0.0000 0.0000 79.4855 -14.4431 -36.7890 -80.9359 59.6873 -52.1585 0.0000 -0.0000 -33.6981 -9.4781 -0.3311 0.0553 7.1250 -0.0000 -0.0000 13.4204 -30.1637 4.9829
-2.2211 18.0882 38.7264 177.3080 1.5911 -179.8300 0.0000 0.0000 0.0000 -27.4639 -8.4929 -11.3153 2.4204 9.6918 27.9843 0.4515 -0.7338 -12.4580 0.1908 -2.8129 -7.7584 0.0000 0.0000 0.0000 15.3012 4.5420 -18.9289 -14.5306 -19.2671 73.8186 0.5775 -13.3842 -3.5459 -0.4464 -4.2869 11.8853 -3.8501 -1.9668 21.9484 4.3366 -2.3286 3.2452 7.6305 -0.6288 -8.3291 -1.2624 -0.3655 -9.6992 -5.9966 1.7194 18.8686 -1.5481 0.5063 7.4474 -0.0000 0.0000 0.0000 -87.9075 19.6616 13.9641 19.7948 -30.3943 -5.4271 -0.0000 0.0000 -6.0416 12.3171 51.0324 9.6351 -7.1250 0.0000 -0.0000 -59.4377 75.1479 -45.4993 -0.0000 0.0000 0.0000 79.1459 -13.8663 -36.9486 -83.6087 59.8451 -54.4679 0.0000 -0.0000 -32.9326 -8.8070 0.2118 -0.0328 7.1250 -0.0000 -0.0000 13.8631 -29.6170 5.3427
-2.2418 18.0716 38.5952 177.0850 1.7371 -179.8810 0.0000 0.0000 0.0000 -27.8558 -8.0693 -10.9060 2.4207 9.6922 27.9857 0.4868 -0.9172 -12.8935 0.2160 -2.9919 -8.2561 0.0000 0.0000 0.0000 15.0246 4.9732 -20.2268 -14.7656 -19.3300 74.5298 0.5430 -12.9246 -4.7232 -0.4489 -4.2986 11.9184 -4.1279 -1.9659 22.0488 4.2818 -2.4234 3.1185 7.7716 -0.6660 -8.4977 -1.2384 -0.2392 -9.5674 -6.1341 1.9625 19.0808 -1.5746 0.6222 7.5020 -0.0000 0.0000 0.0000 -87.9072 19.6094 13.6808 19.9980 -30.6400 -5.5304 -0.0000 0.0000 -5.8065 12.2224 51.2337 9.5867 -7.1250 0.0000 -0.0000 -60.2023 75.1944 -46.2159 -0.0000 0.0000 0.0000 78.5952 -13.5149 -36.5637 -86.2373 59.9464 -56.7420 0.0000 -0.0000 -31.4056 -8.6671 0.7420 -0.1131 7.1250 -0.0000 -0.0000 13.8984 -29.0939 5.5357
-2.2597 18.0518 38.4642 176.9180 2.0167 -179.7720 0.0000 0.0000 0.0000 -28.1229 -7.6164 -10.6551 2.4176 9.6866 27.9676 0.5219 -1.2203 -13.2802 0.1638 -2.6073 -7.1873 0.0000 0.0000 0.0000 14.8390 5.5895 -21.6710 -14.9450 -19.3760 75.0709 0.5161 -12.6384 -5.6205 -0.4071 -4.0962 11.3474 -4.3770 -1.9040 22.0193 4.2690 -2.4361 2.9324 7.9164 -0.6659 -8.6763 -1.4163 -0.1965 -9.3190 -6.1303 2.1061 19.3302 -1.5301 0.6938 7.5431 0.0000 0.0000 0.0000 -87.9804 19.6102 13.4107 20.2721 -30.9687 -5.6707 -0.0000 0.0000 -5.5126 12.6480 51.3026 9.9341 -7.1250 0.0000 -0.0000 -60.1895 75.3856 -46.4042 0.0000 0.0000 0.0000 77.9980 -13.2275 -36.0247 -89.0867 59.9968 -59.2090 0.0000 -0.0000 -29.5732 -8.7606 1.1051 -0.1703 7.1250 -0.0000 -0.0000 13.7792 -28.7386 5.6056
-2.2812 18.0374 38.3289 176.8020 2.1627 -179.7510 0.0000 0.0000 0.0000 -28.3891 -7.1686 -10.2969 2.4165 9.6845 27.9610 0.5482 -1.3750 -13.5798 0.1597 -2.5747 -7.0968 0.0000 0.0000 0.0000 14.6943 5.9248 -22.9424 -15.0434 -19.4005 75.3673 0.4752 -12.2416 -6.4569 -0.3496 -3.7991 10.5120 -4.4004 -1.8956 21.8458 4.1924 -2.4400 2.9713 7.8314 -0.6784 -8.5422 -1.3827 -0.2238 -9.3025 -6.2471 2.1007 19.3841 -1.5745 0.6862 7.5594 -0.0000 0.0000 0.0000 -87.8407 19.1136 13.3022 20.4071 -31.1298 -5.7404 -0.0000 0.0000 -5.2447 12.9787 51.5325 10.2292 -7.1250 0.0000 -0.0000 -60.8268 75.6038 -47.1929 -0.0000 0.0000 0.0000 77.6382 -12.6594 -35.5445 -92.1327 59.9828 -61.8468 0.0000 -0.0000 -27.6425 -8.8579 1.4667 -0.2286 7.1250 -0.0000 -0.0000 13.6589 -28.3842 5.6724
-2.3028 18.0239 38.1942 176.5220 2.2497 -179.8820 0.0000 0.0000 0.0000 -28.8461 -6.6412 -9.7840 2.4102 9.6728 27.9235 0.5859 -1.6897 -13.9785 0.1679 -2.6396 -7.2768 0.0000 0.0000 0.0000 14.4042 6.1685 -23.9992 -15.0701 -19.4070 75.4478 0.4077 -11.6215 -7.4858 -0.3928 -4.0244 11.1452 -4.5904 -1.9011 21.7439 4.0715 -2.5006 3.0647 7.8112 -0.7138 -8.3699 -1.3123 -0.1381 -9.1851 -6.3182 2.1951 19.2034 -1.6000 0.7333 7.4826 -0.0000 -0.0000 0.0000 -87.6529 18.5489 13.3354 20.4776 -31.2134 -5.7768 -0.0000 0.0000 -5.1275 13.1051 51.9552 10.3891 -7.1250 0.0000 -0.0000 -62.3231 75.8113 -48.7381 -0.0000 -0.0000 0.0000 77.3058 -11.9875 -34.8353 -95.2752 59.8946 -64.5668 0.0000 -0.0000 -25.6315 -8.8407 1.8069 -0.2810 7.1250 -0.0000 -0.0000 13.6296 -28.0494 5.7709
-2.3239 18.0073 38.0610 176.2430 2.3400 -179.9690 0.0000 0.0000 0.0000 -29.3063 -6.2119 -9.2863 2.4066 9.6660 27.9019 0.6429 -1.9738 -14.6007 0.1364 -2.3806 -6.5587 0.0000 0.0000 0.0000 14.1176 6.4915 -25.1200 -15.0303 -19.3972 75.3278 0.3243 -10.8288 -8.3336 -0.4987 -4.5275 12.5658 -4.7939 -1.9217 21.7509 3.9556 -2.5999 3.0349 7.8289 -0.7609 -8.3858 -1.2215 -0.0556 -9.0831 -6.5028 2.3526 19.2685 -1.6610 0.8065 7.4932 0.0000 -0.0000 0.0000 -87.5208 18.2731 13.4598 20.7582 -31.5450 -5.9229 -0.0000 0.0000 -5.1757 13.7334 52.1829 10.9272 -7.1250 0.0000 -0.0000 -62.8679 76.1357 -49.5667 0.0000 -0.0000 0.0000 76.8572 -11.4024 -34.0056 -98.1575 59.7471 -67.0586 0.0000 -0.0000 -23.5130 -8.3663 2.3118 -0.3399 7.1250 -0.0000 -0.0000 13.9256 -27.5502 6.0729
-2.3414 17.9916 37.9287 176.0180 2.2996 -179.9940 0.0000 0.0000 0.0000 -29.6772 -5.8672 -8.8923 2.4098 9.6719 27.9208 0.6885 -2.1875 -15.0825 0.1107 -2.1457 -5.9086 0.0000 0.0000 0.0000 13.9126 6.7433 -26.2346 -14.9270 -19.3714 75.0166 0.2670 -10.4273 -9.2329 -0.5372 -4.6962 13.0442 -5.1045 -1.9437 21.9729 4.0074 -2.7254 2.8422 8.1300 -0.7989 -8.6791 -1.4324 -0.0326 -8.7932 -6.5907 2.4648 19.3103 -1.6434 0.8550 7.4590 -0.0000 0.0000 0.0000 -87.7084 18.2811 13.4663 21.1236 -31.9724 -6.1153 -0.0000 0.0000 -5.2251 14.3722 51.8103 11.3868 -7.1250 0.0000 -0.0000 -61.0955 76.2511 -48.1037 -0.0000 0.0000 0.0000 76.1313 -11.1095 -32.9744 -101.1681 59.5234 -69.6564 0.0000 -0.0000 -21.3906 -8.2378 2.9299 -0.4240 7.1250 -0.0000 -0.0000 13.9476 -26.9434 6.2890
-2.3593 17.9719 37.7986 175.8560 2.2719 -179.9650 0.0000 0.0000 0.0000 -29.9799 -5.6332 -8.5856 2.4207 9.6923 27.9859 0.7175 -2.2435 -15.3968 0.1450 -2.4541 -6.7625 0.0000 0.0000 0.0000 13.8065 7.0325 -27.3341 -14.7688 -19.3308 74.5394 0.2535 -10.5270 -9.8846 -0.4356 -4.2351 11.7391 -5.0700 -1.9837 21.7460 3.8663 -2.7718 2.9650 7.9403 -0.8397 -8.4222 -1.1721 -0.0092 -9.0354 -6.7286 2.4810 19.3508 -1.7314 0.8584 7.5194 -0.0000 0.0000 0.0000 -87.3593 17.7398 13.9364 21.4610 -32.3625 -6.2949 -0.0000 0.0000 -5.4461 14.8479 51.8703 11.7794 -7.1250 0.0000 -0.0000 -61.0775 76.4597 -48.3033 -0.0000 0.0000 0.0000 75.9326 -10.3723 -32.0329 -104.2269 59.2212 -72.2886 0.0000 -0.0000 -19.0300 -7.9596 3.7632 -0.5258 7.1250 -0.0000 -0.0000 14.0583 -26.1267 6.6203
